{"title":"SEASON OF THE WITCH","uid":6459775,"size":4284309550,"categoryP":"video","categoryS":"hd___movies","magnet":"?xt=urn:btih:ba9ede1cc6be484ccdc4c508c8f701a6806aa253&amp;dn=SEASON+OF+THE+WITCH&amp;tr=udp%3A%2F%2Ftracker.openbittorrent.com%3A80&amp;tr=udp%3A%2F%2Fopen.demonii.com%3A1337&amp;tr=udp%3A%2F%2Ftracker.coppersurfer.tk%3A6969&amp;tr=udp%3A%2F%2Fexodus.desync.com%3A6969","seeders":0,"leechers":1,"uploader":"mmmeguil","files":2,"time":1307719303,"description":"Directed by Dominic Sena. With Nicolas Cage, Ron Perlman, Claire Foy, Stephen Campbell Moore.\n14th-century knights transport a suspected witch to a monastery, where monks deduce her powers could be the source of the Black Plague. \n\nFormat : BDAV\nFormat/Info : Blu-ray Video\nFile size : 3.99 GiB\nDuration : 1h 34mn\nOverall bit rate : 6 031 Kbps\nMaximum Overall bit rate : 35.5 Mbps\n\nVideo\nID : 4113 (0x1011)\nMenu ID : 1 (0x1)\nFormat : AVC\nFormat/Info : Advanced Video Codec\nFormat profile : &lt;a class=&quot;__cf_email__&quot; href=&quot;/cdn-cgi/l/email-protection&quot; data-cfemail=&quot;460e2f212e060a726876&quot;&gt;[email&amp;#160;protected]&lt;/a&gt;&lt;script cf-hash='f9e31' type=&quot;text/javascript&quot;&gt;\n/* &lt;![CDATA[ */!function(){try{var t=&quot;currentScript&quot;in document?document.currentScript:function(){for(var t=document.getElementsByTagName(&quot;script&quot;),e=t.length;e--;)if(t[e].getAttribute(&quot;cf-hash&quot;))return t[e]}();if(t&amp;&amp;t.previousSibling){var e,r,n,i,c=t.previousSibling,a=c.getAttribute(&quot;data-cfemail&quot;);if(a){for(e=&quot;&quot;,r=parseInt(a.substr(0,2),16),n=2;a.length-n;n+=2)i=parseInt(a.substr(n,2),16)^r,e+=String.fromCharCode(i);e=document.createTextNode(e),c.parentNode.replaceChild(e,c)}}}catch(u){}}();/* ]]&gt; */&lt;/script&gt;\nFormat settings, CABAC : Yes\nFormat settings, ReFrames : 3 frames\nCodec ID : 27\nDuration : 1h 34mn\nBit rate mode : Variable\nBit rate : 5 045 Kbps\nMaximum bit rate : 25.0 Mbps\nWidth : 1 920 pixels\nHeight : 1 080 pixels\nDisplay aspect ratio : 16:9\nFrame rate : 23.976 fps\nColor space : YUV\nChroma subsampling : 4:2:0\nBit depth : 8 bits\nScan type : Progressive\nBits/(Pixel*Frame) : 0.101\nStream size : 3.40 GiB (85%)\n\nAudio\nID : 4352 (0x1100)\nMenu ID : 1 (0x1)\nFormat : AC-3\nFormat/Info : Audio Coding 3\nMode extension : CM (complete main)\nCodec ID : 129\nDuration : 1h 34mn\nBit rate mode : Constant\nBit rate : 640 Kbps\nChannel(s) : 6 channels\nChannel positions : Front: L C R, Side: L R, LFE\nSampling rate : 48.0 KHz\nBit depth : 16 bits\nCompression mode : Lossy\nStream size : 434 MiB (11%)\nLanguage : English\n &lt;a href=&quot;\nhttp://pic.phyrefile.com/i/iu/iuyiyiy/2011/05/18/2482.png&quot; rel=&quot;nofollow&quot; target=&quot;_NEW&quot;&gt;\nhttp://pic.phyrefile.com/i/iu/iuyiyiy/2011/05/18/2482.png&lt;/a&gt;\n &lt;a href=&quot;\nhttp://pic.phyrefile.com/i/iu/iuyiyiy/2011/05/18/10060.png&quot; rel=&quot;nofollow&quot; target=&quot;_NEW&quot;&gt;\nhttp://pic.phyrefile.com/i/iu/iuyiyiy/2011/05/18/10060.png&lt;/a&gt;\n","torrent":{"xt":"urn:btih:ba9ede1cc6be484ccdc4c508c8f701a6806aa253","amp;dn":"SEASON+OF+THE+WITCH","amp;tr":["udp%3A%2F%2Ftracker.openbittorrent.com%3A80","udp%3A%2F%2Fopen.demonii.com%3A1337","udp%3A%2F%2Ftracker.coppersurfer.tk%3A6969","udp%3A%2F%2Fexodus.desync.com%3A6969"],"infoHash":"ba9ede1cc6be484ccdc4c508c8f701a6806aa253","infoHashBuffer":{"type":"Buffer","data":[186,158,222,28,198,190,72,76,205,196,197,8,200,247,1,166,128,106,162,83]},"announce":[],"urlList":[]}}